<svg width="100" height="100" viewBox="0 0 100 100" fill="none" xmlns="http://www.w3.org/2000/svg">
<path d="M50 9.375C41.9652 9.375 34.1107 11.7576 27.43 16.2215C20.7492 20.6855 15.5422 27.0302 12.4674 34.4535C9.3926 41.8767 8.58809 50.0451 10.1556 57.9255C11.7231 65.806 15.5923 73.0447 21.2738 78.7262C26.9553 84.4077 34.194 88.2769 42.0745 89.8444C49.955 91.4119 58.1233 90.6074 65.5465 87.5326C72.9698 84.4578 79.3145 79.2508 83.7785 72.57C88.2424 65.8893 90.625 58.0349 90.625 50C90.6044 39.2319 86.3176 28.9108 78.7034 21.2966C71.0892 13.6824 60.7681 9.39565 50 9.375ZM69.336 42.8906L46.4453 64.7656C45.8535 65.3223 45.0703 65.63 44.2578 65.625C43.8607 65.6307 43.4664 65.5577 43.0977 65.4102C42.7289 65.2627 42.393 65.0436 42.1094 64.7656L30.6641 53.8281C30.3466 53.5512 30.0885 53.2129 29.9051 52.8336C29.7217 52.4543 29.6169 52.0419 29.597 51.621C29.5771 51.2002 29.6425 50.7797 29.7892 50.3848C29.936 49.9899 30.161 49.6288 30.4509 49.3231C30.7408 49.0174 31.0895 48.7734 31.4761 48.606C31.8626 48.4385 32.2791 48.3509 32.7004 48.3484C33.1216 48.346 33.5391 48.4287 33.9275 48.5917C34.316 48.7547 34.6675 48.9946 34.961 49.2969L44.2578 58.1641L65.0391 38.3594C65.6467 37.8293 66.4357 37.5545 67.2412 37.5926C68.0467 37.6307 68.8062 37.9787 69.3611 38.5639C69.9159 39.149 70.2231 39.9259 70.2185 40.7323C70.2138 41.5387 69.8976 42.312 69.336 42.8906Z" fill="#D1D3D6"/>
</svg>
