<svg width="24" height="24" viewBox="0 0 24 24" fill="none" xmlns="http://www.w3.org/2000/svg">
<path fill-rule="evenodd" clip-rule="evenodd" d="M10.904 21.5269C11.57 21.9669 12.429 21.9669 13.094 21.5269C15.209 20.1309 19.814 16.7939 21.798 13.0599C24.413 8.13395 21.342 3.22095 17.282 3.22095C14.968 3.22095 13.576 4.42995 12.806 5.46895C12.7135 5.5962 12.5922 5.69976 12.4521 5.77117C12.3119 5.84258 12.1568 5.8798 11.9995 5.8798C11.8422 5.8798 11.6871 5.84258 11.5469 5.77117C11.4068 5.69976 11.2855 5.5962 11.193 5.46895C10.423 4.42995 9.031 3.22095 6.717 3.22095C2.657 3.22095 -0.414 8.13395 2.202 13.0599C4.184 16.7939 8.791 20.1309 10.904 21.5269Z" fill="#FF6E59"/>
</svg>
