<svg width="16" height="16" viewBox="0 0 16 16" fill="none" xmlns="http://www.w3.org/2000/svg">
<path d="M8.3705 13.8091L8.37111 13.8087C9.06083 13.3535 10.1537 12.5834 11.232 11.6271C12.3174 10.6644 13.3494 9.5465 13.9577 8.40178L8.3705 13.8091ZM8.3705 13.8091C8.1448 13.9585 7.85434 13.9588 7.62747 13.8089C6.93821 13.3535 5.84532 12.5834 4.76706 11.6271C3.68148 10.6643 2.64953 9.54642 2.04197 8.4018L2.04191 8.40169M8.3705 13.8091L2.04191 8.40169M2.04191 8.40169C0.474483 5.45018 2.37063 2.79722 4.47784 2.79722C5.75351 2.79722 6.5067 3.44955 6.9382 4.03099C7.05988 4.19743 7.21901 4.33294 7.40275 4.42654C7.58758 4.5207 7.79207 4.56979 7.9995 4.56979C8.20694 4.56979 8.41143 4.5207 8.59626 4.42654C8.78 4.33294 8.93914 4.19743 9.06081 4.03099C9.4923 3.44955 10.2455 2.79722 11.5212 2.79722C13.6283 2.79722 15.5245 5.45011 13.9578 8.40156L2.04191 8.40169Z" stroke="black" stroke-width="1.3"/>
</svg>
