<svg width="16" height="16" viewBox="0 0 16 16" fill="none" xmlns="http://www.w3.org/2000/svg">
<path fill-rule="evenodd" clip-rule="evenodd" d="M7.26917 14.3512C7.71317 14.6446 8.28584 14.6446 8.72917 14.3512C10.1392 13.4206 13.2092 11.1959 14.5318 8.70655C16.2752 5.42255 14.2278 2.14722 11.5212 2.14722C9.9785 2.14722 9.0505 2.95322 8.53717 3.64588C8.47551 3.73072 8.39466 3.79976 8.30121 3.84737C8.20776 3.89497 8.10438 3.91979 7.9995 3.91979C7.89463 3.91979 7.79124 3.89497 7.6978 3.84737C7.60435 3.79976 7.52349 3.73072 7.46184 3.64588C6.9485 2.95322 6.0205 2.14722 4.47784 2.14722C1.77117 2.14722 -0.276163 5.42255 1.46784 8.70655C2.78917 11.1959 5.8605 13.4206 7.26917 14.3512Z" fill="#FF6E59"/>
</svg>
