<svg width="16" height="16" viewBox="0 0 16 16" fill="none" xmlns="http://www.w3.org/2000/svg">
<path fill-rule="evenodd" clip-rule="evenodd" d="M8.72932 14.3513C10.1393 13.4207 13.2093 11.196 14.532 8.70667C16.2753 5.42267 14.228 2.14733 11.5213 2.14733C9.97866 2.14733 9.05066 2.95333 8.53732 3.646C8.47567 3.73083 8.39481 3.79987 8.30136 3.84748C8.20792 3.89508 8.10453 3.9199 7.99966 3.9199C7.89478 3.9199 7.7914 3.89508 7.69795 3.84748C7.6045 3.79987 7.52365 3.73083 7.46199 3.646C6.94866 2.95333 6.02066 2.14733 4.47799 2.14733C1.77132 2.14733 -0.27601 5.42267 1.46799 8.70667C2.78932 11.196 5.86066 13.4207 7.26932 14.3513C7.71332 14.6447 8.28599 14.6447 8.72932 14.3513ZM13.3545 8.08105C14.7354 5.47923 12.9983 3.48066 11.5213 3.48066C10.5258 3.48066 9.95616 3.97211 9.61094 4.43666C9.42623 4.68857 9.18501 4.8937 8.90659 5.03553C8.62569 5.17864 8.31491 5.25323 7.99966 5.25323C7.6844 5.25323 7.37362 5.17864 7.09272 5.03553C6.81431 4.89371 6.57308 4.68857 6.38837 4.43666C6.04315 3.97211 5.47353 3.48066 4.47799 3.48066C3.00099 3.48066 1.26378 5.47934 2.64557 8.0813L2.6457 8.08154C3.19742 9.12097 4.15976 10.1751 5.22063 11.116C6.26392 12.0413 7.32566 12.7903 7.99933 13.2356C8.67322 12.7906 9.73514 12.0415 10.7787 11.116C11.8393 10.1753 12.8018 9.12115 13.3543 8.08149" fill="black"/>
</svg>
