<svg width="24" height="24" viewBox="0 0 24 24" fill="none" xmlns="http://www.w3.org/2000/svg">
<path d="M12.5431 20.6924L12.5422 20.693C12.212 20.9114 11.7872 20.9119 11.4552 20.6926C10.4219 20.0099 8.78363 18.8555 7.16742 17.4221C5.53995 15.9786 3.99458 14.3042 3.08528 12.5911L3.08519 12.5909C0.74084 8.17646 3.57925 4.22095 6.717 4.22095C8.62021 4.22095 9.74329 5.19352 10.3874 6.0614C10.5722 6.31421 10.8139 6.52003 11.093 6.66221C11.3738 6.80524 11.6844 6.8798 11.9995 6.8798C12.3146 6.8798 12.6252 6.80524 12.906 6.66221C13.1851 6.52004 13.4268 6.31422 13.6116 6.06142C14.2557 5.19354 15.3788 4.22095 17.282 4.22095C20.4197 4.22095 23.2581 8.17634 20.9149 12.5907C20.0046 14.3041 18.459 15.9787 16.8316 17.4221C15.2154 18.8555 13.5771 20.0099 12.5431 20.6924Z" stroke="black" stroke-width="2"/>
</svg>
