<svg width="100" height="100" viewBox="0 0 100 100" fill="none" xmlns="http://www.w3.org/2000/svg">
<g clip-path="url(#clip0_3297_81356)">
<path fill-rule="evenodd" clip-rule="evenodd" d="M94.9999 55.6378C94.9999 43.8447 85.9999 33.9137 74.2068 31.1206C75.4482 34.5344 76.3792 38.2585 76.3792 42.293C76.3792 57.8103 65.5172 70.8447 50.6206 75.8103C55.2758 78.9137 61.1723 81.0861 67.3792 81.0861C70.4827 81.0861 73.8965 80.7758 74.8275 80.7758L83.8275 85.7413C84.1378 85.7413 84.4482 86.0516 84.7585 86.0516C85.0689 86.0516 85.3792 86.0516 85.6896 85.7413C85.9999 85.431 86.3103 85.431 86.3103 85.1206C86.3103 84.8103 86.6206 84.4999 86.6206 84.1896L85.6896 75.4999C92.5172 69.6034 94.9999 61.5344 94.9999 55.6378Z" fill="#D1D3D6"/>
<path fill-rule="evenodd" clip-rule="evenodd" d="M37.8965 12.5C19.5862 12.5 5 25.8448 5 42.2931C5 49.431 8.10345 59.0517 16.1724 65.2586L15.2414 75.5C15.2414 75.8103 15.2414 76.7414 16.1724 77.3621C16.7931 77.9828 18.0345 77.6724 18.3448 77.3621L28.8965 71.7759C30.1379 71.7759 34.1724 72.3966 37.5862 72.3966C55.5862 72.3966 70.4827 59.0517 70.4827 42.6034C70.7931 25.8448 55.8965 12.5 37.8965 12.5ZM24.8621 45.0862C23 45.0862 21.7586 43.8448 21.7586 41.9828C21.7586 40.1207 23 38.8793 24.8621 38.8793C26.7241 38.8793 27.9655 40.1207 27.9655 41.9828C27.9655 43.5345 26.7241 45.0862 24.8621 45.0862ZM37.8965 45.0862C36.0345 45.0862 34.7931 43.8448 34.7931 41.9828C34.7931 40.1207 36.0345 38.8793 37.8965 38.8793C39.7586 38.8793 41 40.1207 41 41.9828C41 43.5345 39.4483 45.0862 37.8965 45.0862ZM50.6207 45.0862C48.7586 45.0862 47.5172 43.8448 47.5172 41.9828C47.5172 40.1207 48.7586 38.8793 50.6207 38.8793C52.4828 38.8793 53.7241 40.1207 53.7241 41.9828C53.7241 43.5345 52.4828 45.0862 50.6207 45.0862Z" fill="#D1D3D6"/>
</g>
<defs>
<clipPath id="clip0_3297_81356">
<rect width="90" height="73.2414" fill="white" transform="translate(5 12.5)"/>
</clipPath>
</defs>
</svg>
