<svg width="16" height="16" viewBox="0 0 16 16" fill="none" xmlns="http://www.w3.org/2000/svg">
<path d="M7.99992 8.66659C8.36811 8.66659 8.66659 8.36811 8.66659 7.99992C8.66659 7.63173 8.36811 7.33325 7.99992 7.33325C7.63173 7.33325 7.33325 7.63173 7.33325 7.99992C7.33325 8.36811 7.63173 8.66659 7.99992 8.66659Z" fill="black" stroke="black" stroke-linecap="round" stroke-linejoin="round"/>
<path d="M7.99992 4.00008C8.36811 4.00008 8.66659 3.7016 8.66659 3.33341C8.66659 2.96522 8.36811 2.66675 7.99992 2.66675C7.63173 2.66675 7.33325 2.96522 7.33325 3.33341C7.33325 3.7016 7.63173 4.00008 7.99992 4.00008Z" fill="black" stroke="black" stroke-linecap="round" stroke-linejoin="round"/>
<path d="M7.99992 13.3333C8.36811 13.3333 8.66659 13.0349 8.66659 12.6667C8.66659 12.2985 8.36811 12 7.99992 12C7.63173 12 7.33325 12.2985 7.33325 12.6667C7.33325 13.0349 7.63173 13.3333 7.99992 13.3333Z" fill="black" stroke="black" stroke-linecap="round" stroke-linejoin="round"/>
</svg>
