<svg width="16" height="16" viewBox="0 0 16 16" fill="none" xmlns="http://www.w3.org/2000/svg">
<g clip-path="url(#clip0_3297_81167)">
<path d="M14.1109 3.55542V6.88875H10.7776" stroke="black" stroke-width="1.3" stroke-linecap="square" stroke-linejoin="round"/>
<path d="M1.88892 12.4444V9.11108H5.22225" stroke="black" stroke-width="1.3" stroke-linecap="square" stroke-linejoin="round"/>
<path d="M2.6706 6.1164L2.45376 6.72917L3.67929 7.16284L3.89613 6.55008L2.6706 6.1164ZM11.5334 4.46657L11.0736 4.92608C11.0784 4.93088 11.0833 4.93561 11.0883 4.94026L11.5334 4.46657ZM13.666 7.36248C13.9276 7.60831 14.339 7.59551 14.5848 7.3339C14.8307 7.07229 14.8179 6.66093 14.5562 6.41511L13.666 7.36248ZM2.33402 8.63733C2.07241 8.3915 1.66105 8.4043 1.41523 8.66591C1.1694 8.92752 1.1822 9.33888 1.44381 9.58471L2.33402 8.63733ZM4.46669 11.5332L4.92643 11.0737C4.92163 11.0689 4.91675 11.0642 4.9118 11.0596L4.46669 11.5332ZM13.3295 9.88341L13.5463 9.27064L12.3208 8.83697L12.1039 9.44973L13.3295 9.88341ZM3.89613 6.55008C4.14126 5.85736 4.55787 5.23802 5.1071 4.74986L4.24347 3.77819C3.53011 4.41224 2.98898 5.21666 2.6706 6.1164L3.89613 6.55008ZM5.1071 4.74986C5.65633 4.2617 6.32027 3.92063 7.03696 3.75847L6.75008 2.49052C5.81919 2.70114 4.95684 3.14415 4.24347 3.77819L5.1071 4.74986ZM7.03696 3.75847C7.75366 3.59631 8.49976 3.61834 9.20564 3.82252L9.56685 2.57371C8.65002 2.30852 7.68096 2.2799 6.75008 2.49052L7.03696 3.75847ZM9.20564 3.82252C9.91151 4.02669 10.5542 4.40636 11.0736 4.92608L11.9931 4.00707C11.3184 3.33203 10.4837 2.8389 9.56685 2.57371L9.20564 3.82252ZM11.0883 4.94026L13.666 7.36248L14.5562 6.41511L11.9785 3.99288L11.0883 4.94026ZM1.44381 9.58471L4.02159 12.0069L4.9118 11.0596L2.33402 8.63733L1.44381 9.58471ZM4.00696 11.9927C4.68166 12.6678 5.51637 13.1609 6.4332 13.4261L6.79442 12.1773C6.08854 11.9731 5.44589 11.5935 4.92643 11.0737L4.00696 11.9927ZM6.4332 13.4261C7.35003 13.6913 8.3191 13.7199 9.24998 13.5093L8.96309 12.2413C8.24639 12.4035 7.5003 12.3815 6.79442 12.1773L6.4332 13.4261ZM9.24998 13.5093C10.1809 13.2987 11.0432 12.8557 11.7566 12.2216L10.893 11.2499C10.3437 11.7381 9.67979 12.0792 8.96309 12.2413L9.24998 13.5093ZM11.7566 12.2216C12.4699 11.5876 13.0111 10.7832 13.3295 9.88341L12.1039 9.44973C11.8588 10.1425 11.4422 10.7618 10.893 11.2499L11.7566 12.2216Z" fill="black"/>
</g>
<defs>
<clipPath id="clip0_3297_81167">
<rect width="13.3333" height="13.3333" fill="white" transform="translate(1.33325 1.33325)"/>
</clipPath>
</defs>
</svg>
