<svg width="24" height="24" viewBox="0 0 24 24" fill="none" xmlns="http://www.w3.org/2000/svg">
<path d="M12 21C16.9706 21 21 16.9706 21 12C21 7.02944 16.9706 3 12 3C7.02944 3 3 7.02944 3 12C3 16.9706 7.02944 21 12 21Z" fill="#FF6E59" stroke="#FF6E59" stroke-width="2" stroke-miterlimit="10"/>
<path d="M9.25 10.125C9.25 10.4702 8.97018 10.75 8.625 10.75C8.27982 10.75 8 10.4702 8 10.125C8 9.77982 8.27982 9.5 8.625 9.5C8.97018 9.5 9.25 9.77982 9.25 10.125Z" fill="white" stroke="white"/>
<path d="M16 10.125C16 10.4702 15.7202 10.75 15.375 10.75C15.0298 10.75 14.75 10.4702 14.75 10.125C14.75 9.77982 15.0298 9.5 15.375 9.5C15.7202 9.5 16 9.77982 16 10.125Z" fill="white" stroke="white"/>
<path d="M15.9001 16.5C15.5036 15.817 14.9347 15.25 14.2503 14.8559C13.5658 14.4618 12.7899 14.2544 12.0001 14.2544C11.2103 14.2544 10.4344 14.4618 9.74993 14.8559C9.0655 15.25 8.49658 15.817 8.1001 16.5" stroke="white" stroke-width="1.3" stroke-linecap="square" stroke-linejoin="round"/>
</svg>
