<svg width="40" height="40" viewBox="0 0 40 40" fill="none" xmlns="http://www.w3.org/2000/svg">
<path d="M20 35C28.2843 35 35 28.2843 35 20C35 11.7157 28.2843 5 20 5C11.7157 5 5 11.7157 5 20C5 28.2843 11.7157 35 20 35Z" stroke="black" stroke-width="2" stroke-miterlimit="10"/>
<path d="M15.75 16.875C15.75 17.6344 15.1344 18.25 14.375 18.25C13.6156 18.25 13 17.6344 13 16.875C13 16.1156 13.6156 15.5 14.375 15.5C15.1344 15.5 15.75 16.1156 15.75 16.875Z" fill="black" stroke="black"/>
<path d="M27 16.875C27 17.6344 26.3844 18.25 25.625 18.25C24.8656 18.25 24.25 17.6344 24.25 16.875C24.25 16.1156 24.8656 15.5 25.625 15.5C26.3844 15.5 27 16.1156 27 16.875Z" fill="black" stroke="black"/>
<path d="M26.5 27.5001C25.8392 26.3616 24.891 25.4167 23.7503 24.7599C22.6095 24.103 21.3163 23.7573 20 23.7573C18.6837 23.7573 17.3905 24.103 16.2497 24.7599C15.109 25.4167 14.1608 26.3616 13.5 27.5001" stroke="black" stroke-width="2" stroke-linecap="square" stroke-linejoin="round"/>
</svg>
