<svg width="16" height="16" viewBox="0 0 16 16" fill="none" xmlns="http://www.w3.org/2000/svg">
<path d="M8 14C11.3137 14 14 11.3137 14 8C14 4.68629 11.3137 2 8 2C4.68629 2 2 4.68629 2 8C2 11.3137 4.68629 14 8 14Z" stroke="black" stroke-width="1.3" stroke-miterlimit="10"/>
<path d="M5.75 7.5C6.16421 7.5 6.5 7.16421 6.5 6.75C6.5 6.33579 6.16421 6 5.75 6C5.33579 6 5 6.33579 5 6.75C5 7.16421 5.33579 7.5 5.75 7.5Z" fill="black"/>
<path d="M10.25 7.5C10.6642 7.5 11 7.16421 11 6.75C11 6.33579 10.6642 6 10.25 6C9.83579 6 9.5 6.33579 9.5 6.75C9.5 7.16421 9.83579 7.5 10.25 7.5Z" fill="black"/>
<path d="M10.5999 9.5C10.3356 9.95537 9.9563 10.3333 9.50001 10.5961C9.04372 10.8588 8.52643 10.9971 7.9999 10.9971C7.47338 10.9971 6.95608 10.8588 6.49979 10.5961C6.0435 10.3333 5.66422 9.95537 5.3999 9.5" stroke="black" stroke-width="1.3" stroke-linecap="square" stroke-linejoin="round"/>
</svg>
