<svg width="24" height="24" viewBox="0 0 24 24" fill="none" xmlns="http://www.w3.org/2000/svg">
<path fill-rule="evenodd" clip-rule="evenodd" d="M21.4182 10.1819H12V14.0501H17.3818C17.15 15.3001 16.4455 16.3592 15.3864 17.0683V19.5774H18.6182C20.5091 17.8365 21.6 15.2728 21.6 12.2273C21.6 11.5183 21.5364 10.8364 21.4182 10.1819Z" fill="#4285F4"/>
<path fill-rule="evenodd" clip-rule="evenodd" d="M18.6191 19.5772L15.3872 17.0681C14.4918 17.6681 13.3463 18.0226 12.0009 18.0226C9.3963 18.0226 7.19174 16.2635 6.40537 13.8999H3.06445V16.4908C4.70991 19.759 8.09175 21.9999 12.0009 21.9999C14.7009 21.9999 16.9645 21.1045 18.6191 19.5772Z" fill="#34A853"/>
<path fill-rule="evenodd" clip-rule="evenodd" d="M6.09093 12C6.09093 11.3409 6.20456 10.7 6.40456 10.1V7.50903H3.06364C2.38637 8.85904 2 10.3863 2 12C2 13.6136 2.38637 15.1409 3.06364 16.4909L6.40456 13.9C6.20456 13.3 6.09093 12.6591 6.09093 12Z" fill="#FBBC05"/>
<path fill-rule="evenodd" clip-rule="evenodd" d="M15.8236 7.47275L18.6918 4.60456C16.96 2.99091 14.6963 2 12.0009 2C8.09175 2 4.70991 4.24092 3.06445 7.50911L6.40537 10.1C7.19174 7.73639 9.3963 5.97729 12.0009 5.97729C13.469 5.97729 14.7872 6.48184 15.8236 7.47275Z" fill="#EA4335"/>
</svg>
