<svg width="55" height="58" viewBox="0 0 55 58" fill="none" xmlns="http://www.w3.org/2000/svg">
<path fill-rule="evenodd" clip-rule="evenodd" d="M41.1208 13.7046C41.121 15.5045 40.7666 17.2868 40.078 18.9498C39.3894 20.6127 38.38 22.1238 37.1074 23.3966C35.8348 24.6695 34.324 25.6792 32.6612 26.3682C30.9983 27.0571 29.2161 27.4118 27.4162 27.412C23.7811 27.4124 20.2948 25.9687 17.7242 23.3986C15.1535 20.8285 13.7092 17.3425 13.7088 13.7074C13.7086 11.9075 14.063 10.1252 14.7516 8.46223C15.4402 6.79927 16.4496 5.28823 17.7222 4.01538C20.2923 1.44475 23.7783 0.000371375 27.4134 7.16052e-08C31.0485 -0.000371231 34.5348 1.44329 37.1054 4.0134C39.6761 6.58351 41.1204 10.0695 41.1208 13.7046ZM27.4148 31.605C7.6776 31.605 0 44.1658 0 50.0094C0 55.8502 16.3436 57.407 27.4148 57.407C38.486 57.407 54.8296 55.8502 54.8296 50.0094C54.8296 44.1658 47.152 31.605 27.4148 31.605Z" fill="currentColor"/>
</svg>
