<svg width="24" height="24" viewBox="0 0 24 24" fill="none" xmlns="http://www.w3.org/2000/svg">
<g clip-path="url(#clip0_3297_81217)">
<path d="M21.1667 5.33325V10.3333H16.1667" stroke="currentColor" stroke-width="2" stroke-linecap="square" stroke-linejoin="round"/>
<path d="M2.83325 18.6667V13.6667H7.83325" stroke="currentColor" stroke-width="2" stroke-linecap="square" stroke-linejoin="round"/>
<path d="M3.9822 9.16639L3.64861 10.1091L5.53404 10.7763L5.86763 9.83358L3.9822 9.16639ZM17.2999 6.69998L16.5926 7.40691C16.6 7.4143 16.6075 7.42158 16.6151 7.42873L17.2999 6.69998ZM20.4818 11.0621C20.8843 11.4403 21.5171 11.4206 21.8953 11.0181C22.2735 10.6156 22.2538 9.98275 21.8514 9.60456L20.4818 11.0621ZM3.51803 12.9379C3.11555 12.5597 2.48269 12.5794 2.1045 12.9819C1.72631 13.3844 1.746 14.0172 2.14848 14.3954L3.51803 12.9379ZM6.69992 17.3L7.4072 16.5931C7.39981 16.5857 7.39231 16.5784 7.3847 16.5712L6.69992 17.3ZM20.0176 14.8336L20.3512 13.8909L18.4658 13.2237L18.1322 14.1664L20.0176 14.8336ZM5.86763 9.83358C6.23392 8.79848 6.85645 7.87304 7.67714 7.1436L6.34848 5.64872C5.27527 6.6026 4.46119 7.81279 3.9822 9.16639L5.86763 9.83358ZM7.67714 7.1436C8.49782 6.41417 9.48992 5.90452 10.5608 5.66221L10.1195 3.71152C8.71903 4.02839 7.42168 4.69485 6.34848 5.64872L7.67714 7.1436ZM10.5608 5.66221C11.6318 5.4199 12.7466 5.45282 13.8014 5.75791L14.3571 3.83667C12.9778 3.43771 11.5199 3.39465 10.1195 3.71152L10.5608 5.66221ZM13.8014 5.75791C14.8561 6.063 15.8164 6.63032 16.5926 7.40691L18.0072 5.99305C16.9922 4.9775 15.7364 4.23564 14.3571 3.83667L13.8014 5.75791ZM16.6151 7.42873L20.4818 11.0621L21.8514 9.60456L17.9847 5.97123L16.6151 7.42873ZM2.14848 14.3954L6.01514 18.0287L7.3847 16.5712L3.51803 12.9379L2.14848 14.3954ZM5.99263 18.0069C7.00767 19.0225 8.26343 19.7643 9.64273 20.1633L10.1985 18.242C9.14369 17.937 8.18341 17.3696 7.4072 16.5931L5.99263 18.0069ZM9.64273 20.1633C11.022 20.5623 12.4799 20.6053 13.8804 20.2884L13.439 18.3378C12.3681 18.5801 11.2532 18.5471 10.1985 18.242L9.64273 20.1633ZM13.8804 20.2884C15.2808 19.9716 16.5782 19.3051 17.6514 18.3512L16.3227 16.8564C15.502 17.5858 14.5099 18.0954 13.439 18.3378L13.8804 20.2884ZM17.6514 18.3512C18.7246 17.3974 19.5386 16.1872 20.0176 14.8336L18.1322 14.1664C17.7659 15.2015 17.1434 16.1269 16.3227 16.8564L17.6514 18.3512Z" fill="currentColor"/>
</g>
<defs>
<clipPath id="clip0_3297_81217">
<rect width="20" height="20" fill="currentColor" transform="translate(2 2)"/>
</clipPath>
</defs>
</svg>
